<svg id="レイヤー_1" data-name="レイヤー 1" xmlns="http://www.w3.org/2000/svg" viewBox="0 0 306 307.19"><title>200205_mm_icon_02</title><path d="M157,9.1A149.15,149.15,0,0,0,12.3,122.18L39,126.79A122.1,122.1,0,1,1,171.65,279.4l3.28,26.79A149.09,149.09,0,0,0,157,9.1Z" transform="translate(-0.08 -9.1)"/><path d="M142.49,316.28l-6-1,5-28.91-17.32-3,.89-5.15,23.28,4Z" transform="translate(-0.08 -9.1)"/><path d="M90.41,301.12l-5.74-2.91,3.78-36.85,5.79,2.94L93,273.93l12.31,6.24,7-6.68,5.57,2.82Zm11.32-17.59-9.4-4.78-2.11,15.6.13.06Z" transform="translate(-0.08 -9.1)"/><path d="M62.29,284.47,41.67,265.56l3.53-3.85,8.1,7.42,19.82-21.62,4.46,4.08L57.76,273.22l8.07,7.39Z" transform="translate(-0.08 -9.1)"/><path d="M30.44,251.54,17.29,230.43l4.43-2.77,10,16,7.68-4.78-9.21-14.79,4.19-2.62,9.21,14.79,8.59-5.35L42,214.63l4.44-2.77,13.34,21.4Z" transform="translate(-0.08 -9.1)"/><path d="M30.88,203.08A7.63,7.63,0,0,0,34,201.49,6.12,6.12,0,0,0,35.63,199a7.78,7.78,0,0,0,.49-3,13.6,13.6,0,0,0-.55-3.4,11.06,11.06,0,0,0-1.38-3.12,6.62,6.62,0,0,0-1.77-1.86,4.33,4.33,0,0,0-2-.75,5.07,5.07,0,0,0-1.95.16A4.13,4.13,0,0,0,26,188.71a5.11,5.11,0,0,0-.74,2.25,43.12,43.12,0,0,0,0,4.47q.1,2.52.16,6.23a13,13,0,0,1-.44,4,8.84,8.84,0,0,1-1.37,2.84,7.47,7.47,0,0,1-2,1.87A10,10,0,0,1,19,211.44a9,9,0,0,1-4.65.2,9.47,9.47,0,0,1-3.84-1.89,12.52,12.52,0,0,1-2.92-3.39,17.65,17.65,0,0,1-1.86-4.25A18.34,18.34,0,0,1,5,197a12.75,12.75,0,0,1,.86-4.63,10.51,10.51,0,0,1,2.53-3.73,10.25,10.25,0,0,1,4.28-2.34l1.68,5.81c-2.09.78-3.4,1.94-3.9,3.5a9,9,0,0,0,.1,5.36,11.21,11.21,0,0,0,.82,2,6.64,6.64,0,0,0,1.26,1.75,4.43,4.43,0,0,0,1.75,1.09,3.79,3.79,0,0,0,2.26,0,3.73,3.73,0,0,0,2.45-1.89,7.29,7.29,0,0,0,.69-3.29c0-.14,0-.66,0-1.58s0-1.95-.06-3.08-.05-2.25-.07-3.33-.05-1.86-.05-2.33a10,10,0,0,1,.58-3.24,9.42,9.42,0,0,1,1.44-2.61,8.6,8.6,0,0,1,2.09-1.91,9.33,9.33,0,0,1,2.49-1.15,9.86,9.86,0,0,1,5.1-.23,10.08,10.08,0,0,1,4.1,2.07,13.78,13.78,0,0,1,3.06,3.7,21.12,21.12,0,0,1,2,4.67,20.21,20.21,0,0,1,.84,5.55,13.06,13.06,0,0,1-.87,5,11,11,0,0,1-2.84,4,12.83,12.83,0,0,1-5,2.7Z" transform="translate(-0.08 -9.1)"/><path d="M.54,173.62l-.46-28,5.23-.09.18,11,29.33-.48.1,6.05-29.33.48.18,10.94Z" transform="translate(-0.08 -9.1)"/></svg>